<?xml version="1.0" encoding="iso-8859-1"?>
<!-- Generator: Adobe Illustrator 18.0.0, SVG Export Plug-In . SVG Version: 6.00 Build 0)  -->
<!DOCTYPE svg PUBLIC "-//W3C//DTD SVG 1.1//EN" "http://www.w3.org/Graphics/SVG/1.1/DTD/svg11.dtd">
<svg xmlns="http://www.w3.org/2000/svg" xmlns:xlink="http://www.w3.org/1999/xlink" version="1.1" id="Capa_1" x="0px" y="0px" viewBox="0 0 477.809 477.809" style="enable-background:new 0 0 477.809 477.809;" xml:space="preserve" width="512px" height="512px">
<path d="M436.042,38.223c-24.42-24.426-56.889-37.877-91.432-37.877c-34.544,0-67.013,13.451-91.434,37.869  c-5.276,5.27-9.923,10.985-14.141,16.946c-4.286-6.083-9.025-11.906-14.402-17.283C200.213,13.451,167.744,0,133.201,0  C98.657,0,66.188,13.451,41.777,37.878C17.349,62.297,3.899,94.767,3.899,129.303c0,34.543,13.458,67.012,37.879,91.424  c4.608,4.609,10.645,6.914,16.683,6.914c6.038,0,12.084-2.305,16.685-6.914c9.217-9.217,9.217-24.157,0-33.368  c-15.51-15.508-24.052-36.126-24.052-58.056c0-21.932,8.542-42.548,24.059-58.056c15.502-15.509,36.118-24.052,58.049-24.052  c21.93,0,42.556,8.542,58.064,24.058c15.715,15.71,24.258,36.619,24.035,58.863c0,0.031,0.008,0.055,0.008,0.085v324.011  c0,13.035,10.562,23.598,23.597,23.598s23.598-10.563,23.598-23.598V130.547c0-0.031,0.007-0.053,0.007-0.085  c-0.223-22.246,8.319-43.155,24.035-58.871c15.51-15.508,36.134-24.05,58.065-24.05c21.93,0,42.546,8.542,58.056,24.05  c15.508,15.51,24.051,36.126,24.051,58.058c0,21.93-8.542,42.546-24.051,58.056c-9.217,9.209-9.217,24.149,0,33.368  c4.602,4.608,10.646,6.913,16.684,6.913s12.076-2.305,16.685-6.913c24.419-24.412,37.876-56.881,37.876-91.424  C473.91,95.112,460.46,62.643,436.042,38.223z" fill="#FFFFFF"/>
<g>
</g>
<g>
</g>
<g>
</g>
<g>
</g>
<g>
</g>
<g>
</g>
<g>
</g>
<g>
</g>
<g>
</g>
<g>
</g>
<g>
</g>
<g>
</g>
<g>
</g>
<g>
</g>
<g>
</g>
</svg>
